<svg width="84" height="29" viewBox="0 0 84 29" fill="none" xmlns="http://www.w3.org/2000/svg">
<path d="M8.21591 9.90909H5.49716V8.87784C5.49716 7.85511 5.9233 7.28409 7.07386 7.28409C7.55966 7.28409 7.96875 7.39489 8.22443 7.47159L8.84659 5.08523C8.44602 4.94886 7.56818 4.72727 6.50284 4.72727C4.22727 4.72727 2.41193 6.03125 2.41193 8.67329V9.90909H0.477273V12.2955H2.41193V23H5.49716V12.2955H8.21591V9.90909ZM7.7521 23H10.8373V15.0398C10.8373 13.429 11.9112 12.3381 13.2407 12.3381C14.5447 12.3381 15.4396 13.2159 15.4396 14.5625V23H18.4652V14.8352C18.4652 13.3608 19.343 12.3381 20.8345 12.3381C22.0788 12.3381 23.0674 13.071 23.0674 14.6903V23H26.1612V14.2131C26.1612 11.2898 24.4737 9.73864 22.0703 9.73864C20.1697 9.73864 18.7209 10.6761 18.1413 12.1335H18.0049C17.5021 10.6506 16.2322 9.73864 14.468 9.73864C12.7123 9.73864 11.3998 10.642 10.8544 12.1335H10.701V9.90909H7.7521V23ZM32.1214 23.2557C35.9566 23.2557 38.3941 20.554 38.3941 16.5057C38.3941 12.4489 35.9566 9.73864 32.1214 9.73864C28.2862 9.73864 25.8487 12.4489 25.8487 16.5057C25.8487 20.554 28.2862 23.2557 32.1214 23.2557ZM32.1384 20.7841C30.0163 20.7841 28.9765 18.892 28.9765 16.4972C28.9765 14.1023 30.0163 12.1847 32.1384 12.1847C34.2265 12.1847 35.2663 14.1023 35.2663 16.4972C35.2663 18.892 34.2265 20.7841 32.1384 20.7841ZM49.3806 9.90909H46.0993L43.0823 19.6335H42.9459L39.9374 9.90909H36.6476L41.3096 23H44.7187L49.3806 9.90909ZM48.6355 23H51.7208V9.90909H48.6355V23ZM50.1867 8.05114C51.1668 8.05114 51.9679 7.30114 51.9679 6.38068C51.9679 5.4517 51.1668 4.7017 50.1867 4.7017C49.198 4.7017 48.3969 5.4517 48.3969 6.38068C48.3969 7.30114 49.198 8.05114 50.1867 8.05114ZM57.8088 23.2557C60.8599 23.2557 62.9565 21.7642 63.502 19.4886L60.6213 19.1648C60.2037 20.2727 59.181 20.8523 57.8514 20.8523C55.8571 20.8523 54.5361 19.5398 54.5105 17.2983H63.6298V16.3523C63.6298 11.7585 60.8685 9.73864 57.6469 9.73864C53.8969 9.73864 51.4509 12.4915 51.4509 16.5312C51.4509 20.6392 53.8628 23.2557 57.8088 23.2557ZM54.519 15.2188C54.6128 13.5483 55.8486 12.142 57.6895 12.142C59.4622 12.142 60.6554 13.4375 60.6724 15.2188H54.519Z" fill="black"/>
<path d="M81.6932 15.4989L69.8778 8.30907C69.6112 8.14686 69.2699 8.33874 69.2699 8.65078L69.2699 22.6572C69.2699 22.965 69.6031 23.1575 69.8698 23.0036L81.6852 16.1871C81.9484 16.0352 81.9528 15.6568 81.6932 15.4989Z" fill="#17C37B" stroke="#17C37B"/>
</svg>
