<svg width="32" height="32" viewBox="0 0 32 32" fill="none" xmlns="http://www.w3.org/2000/svg">
<path d="M31.0763 16.1035C31.0776 15.0307 30.9863 13.9597 30.8032 12.9023H15.8527V18.9658H24.4157C24.2405 19.9342 23.8696 20.8574 23.3254 21.6797C22.7813 22.5019 22.0751 23.2062 21.2494 23.7501V27.686H26.3599C29.3522 24.9462 31.0763 20.8944 31.0763 16.1035Z" fill="#4285F4"/>
<path d="M15.8527 31.4886C20.1309 31.4886 23.7332 30.0936 26.36 27.6883L21.2495 23.7524C19.8271 24.7101 17.9951 25.2568 15.8527 25.2568C11.7177 25.2568 8.20791 22.4885 6.95286 18.7582H1.68823V22.8143C3.00773 25.4218 5.03103 27.6138 7.53226 29.1455C10.0335 30.6773 12.9142 31.4885 15.8527 31.4886V31.4886Z" fill="#34A853"/>
<path d="M6.95272 18.7579C6.28922 16.8032 6.28922 14.6863 6.95272 12.7316V8.67542H1.6881C0.578091 10.8689 0 13.2898 0 15.7447C0 18.1996 0.578091 20.6205 1.6881 22.8141L6.95272 18.7579Z" fill="#FBBC04"/>
<path d="M15.8527 6.23288C18.1136 6.1962 20.2981 7.0445 21.9343 8.59442L26.4591 4.10093C23.5899 1.42468 19.7888 -0.0446215 15.8527 0.00103293C12.9142 0.00116593 10.0335 0.812386 7.53226 2.34413C5.03103 3.87587 3.00773 6.06784 1.68823 8.67533L6.95286 12.7315C8.20791 9.00113 11.7177 6.23288 15.8527 6.23288Z" fill="#EA4335"/>
</svg>
